<svg id="Ebene_1" data-name="Ebene 1" xmlns="http://www.w3.org/2000/svg" viewBox="0 0 2000 2000"><path d="M1437.71,381.64H1375v65.21a83.72,83.72,0,0,1-167.44,0V381.64h-415v65.21a83.72,83.72,0,0,1-167.44,0V381.64H562.29c-102.07,0-184.82,82.75-184.82,184.82v875.41c0,102.07,82.75,184.82,184.82,184.82h875.42c102.07,0,184.82-82.75,184.82-184.82V566.46C1622.53,464.39,1539.78,381.64,1437.71,381.64ZM821.84,1421.92a51.47,51.47,0,0,1-51.47,51.46H647.17a51.46,51.46,0,0,1-51.46-51.46V700.27a51.46,51.46,0,0,1,51.46-51.46h123.2a51.47,51.47,0,0,1,51.47,51.46Zm308.69-290.49a51.46,51.46,0,0,1-51.46,51.46H938.4a51.47,51.47,0,0,1-51.47-51.46V990.76A51.47,51.47,0,0,1,938.4,939.3h140.67a51.46,51.46,0,0,1,51.46,51.46ZM1413,1421.92a51.47,51.47,0,0,1-51.47,51.46H1220.89a51.46,51.46,0,0,1-51.46-51.46V1281.25a51.46,51.46,0,0,1,51.46-51.46h140.67a51.47,51.47,0,0,1,51.47,51.46Zm0-581a51.47,51.47,0,0,1-51.47,51.46H1220.89a51.46,51.46,0,0,1-51.46-51.46V700.27a51.46,51.46,0,0,1,51.46-51.46h140.67A51.47,51.47,0,0,1,1413,700.27Z" style="fill:#2f5aea"/><rect x="658.87" y="265.71" width="99.81" height="231.85" rx="49.9" style="fill:#2f5aea"/><rect x="1241.32" y="265.71" width="99.81" height="231.85" rx="49.9" style="fill:#2f5aea"/></svg>